<mxfile host="app.diagrams.net" modified="2022-11-03T08:56:47.675Z" agent="5.0 (X11; Linux x86_64) AppleWebKit/537.36 (KHTML, like Gecko) Chrome/105.0.0.0 Safari/537.36" etag="CkOnPdxwgvEavtAynAe2" version="20.5.1" type="github">
  <diagram id="kGfsnMhB6VJ4VMqcUgDM" name="Page-1">
    <mxGraphModel dx="1292" dy="753" grid="1" gridSize="10" guides="1" tooltips="1" connect="1" arrows="1" fold="1" page="1" pageScale="1" pageWidth="827" pageHeight="1169" math="0" shadow="0">
      <root>
        <mxCell id="0" />
        <mxCell id="1" parent="0" />
        <mxCell id="trRhdnVgsLyDhOyCSFnk-1" value="科学问题" style="text;html=1;align=center;verticalAlign=middle;resizable=0;points=[];autosize=1;strokeColor=none;fillColor=none;" vertex="1" parent="1">
          <mxGeometry x="35" y="210" width="70" height="30" as="geometry" />
        </mxCell>
        <mxCell id="trRhdnVgsLyDhOyCSFnk-2" value="研究内容&amp;amp;方法" style="text;html=1;align=center;verticalAlign=middle;resizable=0;points=[];autosize=1;strokeColor=none;fillColor=none;" vertex="1" parent="1">
          <mxGeometry x="465" y="160" width="100" height="30" as="geometry" />
        </mxCell>
        <mxCell id="trRhdnVgsLyDhOyCSFnk-3" value="研究目标" style="text;html=1;align=center;verticalAlign=middle;resizable=0;points=[];autosize=1;strokeColor=none;fillColor=none;" vertex="1" parent="1">
          <mxGeometry x="860" y="190" width="70" height="30" as="geometry" />
        </mxCell>
        <mxCell id="trRhdnVgsLyDhOyCSFnk-4" value="1. 提出&lt;b&gt;统一框架&lt;/b&gt;实现多类型数据定价" style="rounded=1;whiteSpace=wrap;html=1;" vertex="1" parent="1">
          <mxGeometry x="20" y="280" width="120" height="60" as="geometry" />
        </mxCell>
        <mxCell id="trRhdnVgsLyDhOyCSFnk-5" value="&lt;span style=&quot;font-weight: normal;&quot;&gt;2. 构建满足&lt;/span&gt;多目标优化&lt;span style=&quot;font-weight: normal;&quot;&gt;的数据定价框架&lt;/span&gt;" style="rounded=1;whiteSpace=wrap;html=1;fontStyle=1" vertex="1" parent="1">
          <mxGeometry x="20" y="370" width="120" height="60" as="geometry" />
        </mxCell>
        <mxCell id="trRhdnVgsLyDhOyCSFnk-6" value="3. 通过个人激励实现&lt;b&gt;社会整体增益&lt;/b&gt;最大化" style="rounded=1;whiteSpace=wrap;html=1;" vertex="1" parent="1">
          <mxGeometry x="20" y="460" width="120" height="60" as="geometry" />
        </mxCell>
        <mxCell id="trRhdnVgsLyDhOyCSFnk-7" value="交易前：&lt;br&gt;确认参与方与内生函数" style="text;html=1;align=center;verticalAlign=middle;resizable=0;points=[];autosize=1;strokeColor=none;fillColor=none;" vertex="1" parent="1">
          <mxGeometry x="260" y="225" width="140" height="40" as="geometry" />
        </mxCell>
        <mxCell id="trRhdnVgsLyDhOyCSFnk-8" value="交易中：&lt;br&gt;确认目标函数与约束、迭代" style="text;html=1;align=center;verticalAlign=middle;resizable=0;points=[];autosize=1;strokeColor=none;fillColor=none;" vertex="1" parent="1">
          <mxGeometry x="430" y="220" width="170" height="40" as="geometry" />
        </mxCell>
        <mxCell id="trRhdnVgsLyDhOyCSFnk-9" value="交易后：&lt;br&gt;输出分配结果、验证" style="text;html=1;align=center;verticalAlign=middle;resizable=0;points=[];autosize=1;strokeColor=none;fillColor=none;" vertex="1" parent="1">
          <mxGeometry x="640" y="220" width="130" height="40" as="geometry" />
        </mxCell>
        <mxCell id="trRhdnVgsLyDhOyCSFnk-11" value="&lt;div style=&quot;text-align: justify;&quot;&gt;&lt;span style=&quot;background-color: initial;&quot;&gt;参与方&lt;/span&gt;&lt;/div&gt;" style="rounded=1;whiteSpace=wrap;html=1;verticalAlign=top;" vertex="1" parent="1">
          <mxGeometry x="175" y="295" width="290" height="210" as="geometry" />
        </mxCell>
        <mxCell id="trRhdnVgsLyDhOyCSFnk-12" value="&lt;div style=&quot;text-align: justify;&quot;&gt;&lt;span style=&quot;background-color: initial;&quot;&gt;范围确认&lt;/span&gt;&lt;/div&gt;&lt;blockquote style=&quot;margin: 0px 0px 0px 40px; border: none; padding: 0px;&quot;&gt;&lt;div&gt;&lt;span style=&quot;background-color: initial;&quot;&gt;&lt;br&gt;&lt;/span&gt;&lt;/div&gt;&lt;/blockquote&gt;" style="text;html=1;align=center;verticalAlign=middle;resizable=0;points=[];autosize=1;strokeColor=none;fillColor=none;" vertex="1" parent="1">
          <mxGeometry x="190" y="330" width="70" height="40" as="geometry" />
        </mxCell>
        <mxCell id="trRhdnVgsLyDhOyCSFnk-13" value="&lt;div style=&quot;color: rgb(0, 0, 0); font-family: Helvetica; font-size: 12px; font-style: normal; font-variant-ligatures: normal; font-variant-caps: normal; font-weight: 400; letter-spacing: normal; orphans: 2; text-indent: 0px; text-transform: none; widows: 2; word-spacing: 0px; -webkit-text-stroke-width: 0px; text-decoration-thickness: initial; text-decoration-style: initial; text-decoration-color: initial; background-color: rgb(248, 249, 250); text-align: justify;&quot;&gt;&lt;span style=&quot;background-color: initial;&quot;&gt;状态：&lt;/span&gt;&lt;/div&gt;&lt;div style=&quot;color: rgb(0, 0, 0); font-family: Helvetica; font-size: 12px; font-style: normal; font-variant-ligatures: normal; font-variant-caps: normal; font-weight: 400; letter-spacing: normal; orphans: 2; text-indent: 0px; text-transform: none; widows: 2; word-spacing: 0px; -webkit-text-stroke-width: 0px; text-decoration-thickness: initial; text-decoration-style: initial; text-decoration-color: initial; background-color: rgb(248, 249, 250); text-align: justify;&quot;&gt;&lt;span style=&quot;background-color: initial;&quot;&gt;&lt;span style=&quot;white-space: pre;&quot;&gt;	&lt;/span&gt;质量、数量&lt;/span&gt;&lt;/div&gt;&lt;div style=&quot;color: rgb(0, 0, 0); font-family: Helvetica; font-size: 12px; font-style: normal; font-variant-ligatures: normal; font-variant-caps: normal; font-weight: 400; letter-spacing: normal; orphans: 2; text-indent: 0px; text-transform: none; widows: 2; word-spacing: 0px; -webkit-text-stroke-width: 0px; text-decoration-thickness: initial; text-decoration-style: initial; text-decoration-color: initial; background-color: rgb(248, 249, 250); text-align: justify;&quot;&gt;&lt;span style=&quot;background-color: initial;&quot;&gt;&lt;span style=&quot;white-space: pre;&quot;&gt;	&lt;/span&gt;信息熵&lt;/span&gt;&lt;/div&gt;&lt;div style=&quot;color: rgb(0, 0, 0); font-family: Helvetica; font-size: 12px; font-style: normal; font-variant-ligatures: normal; font-variant-caps: normal; font-weight: 400; letter-spacing: normal; orphans: 2; text-indent: 0px; text-transform: none; widows: 2; word-spacing: 0px; -webkit-text-stroke-width: 0px; text-decoration-thickness: initial; text-decoration-style: initial; text-decoration-color: initial; background-color: rgb(248, 249, 250); text-align: justify;&quot;&gt;&lt;span style=&quot;background-color: initial;&quot;&gt;&lt;span style=&quot;white-space: pre;&quot;&gt;	&lt;/span&gt;博弈状态（参与方、策略、回报）&lt;/span&gt;&lt;/div&gt;" style="text;whiteSpace=wrap;html=1;" vertex="1" parent="1">
          <mxGeometry x="200" y="350" width="240" height="80" as="geometry" />
        </mxCell>
        <mxCell id="trRhdnVgsLyDhOyCSFnk-14" value="内生函数：&lt;br&gt;" style="text;html=1;align=center;verticalAlign=middle;resizable=0;points=[];autosize=1;strokeColor=none;fillColor=none;" vertex="1" parent="1">
          <mxGeometry x="180" y="605" width="80" height="30" as="geometry" />
        </mxCell>
      </root>
    </mxGraphModel>
  </diagram>
</mxfile>
